<?xml version="1.0" encoding="UTF-8"?>
<svg id="Layer_1" data-name="Layer 1" xmlns="http://www.w3.org/2000/svg" viewBox="0 0 987.45 1000">
  <defs>
    <style>
      .cls-1 {
        fill: #00a6b6;
      }

      .cls-1, .cls-2 {
        stroke-width: 0px;
      }

      .cls-2 {
        fill: #13455a;
      }
    </style>
  </defs>
  <path class="cls-1" d="M655.58,94.76l-272.83,272.84c-5.92,5.92-15.51,5.92-21.42,0L19.58,25.86C10.04,16.32,16.8,0,30.29,0h545.67c4.02,0,7.87,1.6,10.71,4.44l68.9,68.9c5.92,5.92,5.92,15.51,0,21.42Z"/>
  <path class="cls-1" d="M957.16,1000H411.49c-4.02,0-7.87-1.6-10.71-4.44l-68.9-68.9c-5.92-5.92-5.92-15.51,0-21.42l272.83-272.84c5.92-5.92,15.51-5.92,21.42,0l341.74,341.74c9.54,9.54,2.78,25.86-10.71,25.86Z"/>
  <path class="cls-2" d="M983.02,178.81L172.54,989.29c-5.92,5.92-15.51,5.92-21.42,0l-73.34-73.34L4.44,842.61c-5.92-5.92-5.92-15.51,0-21.42l405.24-405.24L814.92,10.71c5.92-5.92,15.51-5.92,21.42,0l146.68,146.68c5.92,5.92,5.92,15.51,0,21.42Z"/>
</svg>