<svg xmlns="http://www.w3.org/2000/svg" xmlns:xlink="http://www.w3.org/1999/xlink" width="500" zoomAndPan="magnify" viewBox="0 0 375 374.999991" height="500" preserveAspectRatio="xMidYMid meet" version="1.2"><defs><clipPath id="3ba468e3a7"><path d="M 185 18.75 L 371.820312 18.75 L 371.820312 207 L 185 207 Z M 185 18.75 "/></clipPath><clipPath id="f60c961d93"><path d="M 3 126 L 234 126 L 234 356.25 L 3 356.25 Z M 3 126 "/></clipPath></defs><g id="4f16fff4e7"><g clip-rule="nonzero" clip-path="url(#3ba468e3a7)"><path style=" stroke:none;fill-rule:nonzero;fill:currentColor;fill-opacity:1;" d="M 338.734375 110.929688 C 348.566406 104.289062 355.046875 93.042969 355.046875 80.304688 C 355.046875 59.945312 338.5 43.378906 318.164062 43.378906 C 297.828125 43.378906 281.28125 59.941406 281.28125 80.304688 C 281.28125 93.039062 287.761719 104.289062 297.59375 110.929688 C 295.097656 111.921875 292.636719 113.074219 290.238281 114.371094 C 285.867188 102.039062 273.296875 91.785156 259.570312 86.308594 C 269.355469 79.660156 275.796875 68.4375 275.796875 55.734375 C 275.796875 35.371094 259.25 18.808594 238.910156 18.808594 C 218.570312 18.808594 202.023438 35.371094 202.023438 55.734375 C 202.023438 68.472656 208.503906 79.726562 218.339844 86.367188 C 201.597656 93.019531 185.890625 106.75 185.890625 123.832031 L 185.890625 176.476562 C 185.890625 179.421875 188.277344 181.804688 191.214844 181.804688 L 265.144531 181.804688 L 265.144531 201.054688 C 265.144531 204 267.53125 206.382812 270.46875 206.382812 L 365.851562 206.382812 C 368.792969 206.382812 371.175781 204 371.175781 201.054688 L 371.175781 148.394531 C 371.183594 131.3125 355.476562 117.578125 338.734375 110.929688 Z M 291.933594 80.304688 C 291.933594 65.824219 303.699219 54.039062 318.167969 54.039062 C 332.636719 54.039062 344.402344 65.820312 344.402344 80.304688 C 344.402344 94.785156 332.636719 106.5625 318.167969 106.5625 C 303.699219 106.5625 291.933594 94.785156 291.933594 80.304688 Z M 212.675781 55.730469 C 212.675781 41.246094 224.445312 29.460938 238.917969 29.460938 C 253.386719 29.460938 265.15625 41.246094 265.15625 55.730469 C 265.15625 70.214844 253.386719 81.996094 238.917969 81.996094 C 224.445312 81.996094 212.675781 70.214844 212.675781 55.730469 Z M 196.546875 171.144531 L 196.546875 123.828125 C 196.546875 107.773438 220.417969 92.65625 238.917969 92.65625 C 255.433594 92.65625 277.945312 105.460938 280.925781 120.460938 C 271.753906 127.710938 265.15625 137.339844 265.15625 148.394531 L 265.15625 171.144531 Z M 360.535156 195.722656 L 275.800781 195.722656 L 275.800781 148.394531 C 275.800781 132.339844 299.667969 117.222656 318.167969 117.222656 C 336.667969 117.222656 360.539062 132.339844 360.539062 148.394531 L 360.539062 195.722656 Z M 360.535156 195.722656 "/></g><g clip-rule="nonzero" clip-path="url(#f60c961d93)"><path style=" stroke:none;fill-rule:nonzero;fill:currentColor;fill-opacity:1;" d="M 203.890625 224.097656 C 201.808594 222.015625 198.441406 222.015625 196.363281 224.097656 L 126.683594 293.84375 C 118.691406 301.835938 108.054688 306.238281 96.726562 306.238281 C 85.398438 306.238281 74.761719 301.835938 66.769531 293.847656 L 66.105469 293.179688 C 58.113281 285.183594 53.71875 274.535156 53.71875 263.195312 C 53.71875 251.855469 58.113281 241.207031 66.105469 233.210938 L 135.785156 163.464844 C 136.785156 162.46875 137.34375 161.109375 137.34375 159.695312 C 137.34375 158.28125 136.785156 156.929688 135.785156 155.929688 L 108.011719 128.128906 C 105.929688 126.046875 102.5625 126.046875 100.480469 128.128906 L 75.945312 152.6875 C 75.941406 152.691406 75.9375 152.691406 75.933594 152.695312 C 75.933594 152.699219 75.933594 152.703125 75.929688 152.707031 L 30.808594 197.875 C 13.402344 215.292969 3.816406 238.492188 3.816406 263.195312 C 3.816406 287.902344 13.402344 311.097656 30.789062 328.496094 L 31.46875 329.183594 C 48.871094 346.605469 72.050781 356.195312 96.726562 356.195312 C 121.40625 356.195312 144.582031 346.605469 161.992188 329.183594 L 231.671875 259.433594 C 232.671875 258.433594 233.230469 257.078125 233.230469 255.664062 C 233.230469 254.25 232.671875 252.898438 231.671875 251.894531 Z M 104.246094 139.4375 L 124.492188 159.699219 L 107.46875 176.734375 L 87.226562 156.46875 Z M 154.457031 321.648438 C 139.058594 337.050781 118.558594 345.539062 96.71875 345.539062 C 74.886719 345.539062 54.378906 337.054688 39.007812 321.664062 L 38.332031 320.980469 C 22.9375 305.570312 14.457031 285.050781 14.457031 263.191406 C 14.457031 241.332031 22.9375 220.8125 38.332031 205.40625 L 79.695312 164 L 99.9375 184.265625 L 58.574219 225.671875 C 48.578125 235.679688 43.070312 249.007812 43.070312 263.195312 C 43.070312 277.386719 48.578125 290.710938 58.574219 300.71875 L 59.242188 301.386719 C 69.242188 311.390625 82.554688 316.902344 96.730469 316.902344 C 110.90625 316.902344 124.214844 311.390625 134.21875 301.386719 L 175.578125 259.972656 L 195.824219 280.238281 Z M 203.351562 272.703125 L 183.105469 252.4375 L 200.128906 235.398438 L 220.375 255.664062 Z M 203.351562 272.703125 "/></g><path style=" stroke:none;fill-rule:nonzero;fill:currentColor;fill-opacity:1;" d="M 137.652344 128.183594 C 138.585938 128.847656 139.660156 129.160156 140.71875 129.160156 C 142.390625 129.160156 144.039062 128.375 145.074219 126.902344 L 161.910156 103.027344 C 163.605469 100.621094 163.03125 97.296875 160.632812 95.601562 C 158.226562 93.898438 154.902344 94.472656 153.210938 96.882812 L 136.375 120.761719 C 134.679688 123.160156 135.25 126.488281 137.652344 128.183594 Z M 137.652344 128.183594 "/><path style=" stroke:none;fill-rule:nonzero;fill:currentColor;fill-opacity:1;" d="M 226.460938 221.722656 C 227.238281 221.722656 228.03125 221.546875 228.78125 221.1875 L 253.332031 209.257812 C 255.976562 207.96875 257.078125 204.785156 255.792969 202.136719 C 254.507812 199.488281 251.320312 198.386719 248.675781 199.671875 L 224.128906 211.601562 C 221.484375 212.886719 220.378906 216.074219 221.664062 218.71875 C 222.585938 220.617188 224.480469 221.722656 226.460938 221.722656 Z M 226.460938 221.722656 "/><path style=" stroke:none;fill-rule:nonzero;fill:currentColor;fill-opacity:1;" d="M 116.898438 98.71875 C 117.433594 98.890625 117.984375 98.972656 118.515625 98.972656 C 120.773438 98.972656 122.867188 97.527344 123.585938 95.261719 L 139.484375 45.414062 C 140.378906 42.609375 138.832031 39.609375 136.03125 38.714844 C 133.222656 37.8125 130.230469 39.371094 129.339844 42.171875 L 113.445312 92.023438 C 112.554688 94.824219 114.097656 97.824219 116.898438 98.71875 Z M 116.898438 98.71875 "/><path style=" stroke:none;fill-rule:nonzero;fill:currentColor;fill-opacity:1;" d="M 307.832031 228.03125 L 257.332031 232.953125 C 254.40625 233.238281 252.261719 235.84375 252.546875 238.773438 C 252.8125 241.527344 255.132812 243.585938 257.839844 243.585938 C 258.011719 243.585938 258.1875 243.578125 258.359375 243.558594 L 308.863281 238.640625 C 311.785156 238.351562 313.929688 235.75 313.644531 232.816406 C 313.363281 229.890625 310.734375 227.773438 307.832031 228.03125 Z M 307.832031 228.03125 "/></g></svg>