<svg xmlns="http://www.w3.org/2000/svg" xmlns:xlink="http://www.w3.org/1999/xlink" width="500" zoomAndPan="magnify" viewBox="0 0 375 374.999991" height="500" preserveAspectRatio="xMidYMid meet" version="1.2"><defs><clipPath id="e067852b38"><path d="M 284 185 L 373.449219 185 L 373.449219 305 L 284 305 Z M 284 185 "/></clipPath><clipPath id="99de27add9"><path d="M 1.449219 70 L 278 70 L 278 305 L 1.449219 305 Z M 1.449219 70 "/></clipPath></defs><g id="708399426e"><path style=" stroke:none;fill-rule:nonzero;fill:#000000;fill-opacity:1;" d="M 252.636719 272.089844 C 249.515625 272.089844 247.003906 274.621094 247.003906 277.734375 C 247.003906 280.851562 249.515625 283.378906 252.636719 283.378906 L 268.136719 283.378906 C 271.238281 283.378906 273.773438 280.851562 273.773438 277.734375 C 273.773438 274.621094 271.238281 272.089844 268.136719 272.089844 Z M 252.636719 272.089844 "/><path style=" stroke:none;fill-rule:nonzero;fill:#000000;fill-opacity:1;" d="M 208.539062 293.019531 C 202.328125 293.019531 197.265625 287.960938 197.265625 281.730469 L 197.265625 142.789062 C 197.265625 136.558594 202.328125 131.5 208.539062 131.5 L 312.214844 131.5 C 318.4375 131.5 323.488281 136.558594 323.488281 142.789062 L 323.488281 173.851562 L 334.761719 173.851562 L 334.761719 142.789062 C 334.761719 130.339844 324.660156 120.214844 312.214844 120.214844 L 208.539062 120.214844 C 196.105469 120.214844 185.996094 130.339844 185.996094 142.789062 L 185.996094 281.730469 C 185.996094 294.183594 196.105469 304.308594 208.539062 304.308594 L 279.320312 304.308594 C 276.828125 301.011719 274.96875 297.21875 274.125 293.019531 Z M 208.539062 293.019531 "/><g clip-rule="nonzero" clip-path="url(#e067852b38)"><path style=" stroke:none;fill-rule:nonzero;fill:#000000;fill-opacity:1;" d="M 356.539062 185.140625 L 301.742188 185.140625 C 292.410156 185.140625 284.832031 192.738281 284.832031 202.074219 L 284.832031 287.375 C 284.832031 296.710938 292.410156 304.308594 301.742188 304.308594 L 356.539062 304.308594 C 365.851562 304.308594 373.449219 296.710938 373.449219 287.375 L 373.449219 202.074219 C 373.449219 192.738281 365.851562 185.140625 356.539062 185.140625 Z M 362.175781 287.375 C 362.175781 290.480469 359.640625 293.019531 356.539062 293.019531 L 301.742188 293.019531 C 298.632812 293.019531 296.105469 290.480469 296.105469 287.375 L 296.105469 286.40625 L 362.175781 286.40625 Z M 362.175781 275.117188 L 296.105469 275.117188 L 296.105469 202.074219 C 296.105469 198.96875 298.632812 196.429688 301.742188 196.429688 L 356.539062 196.429688 C 359.640625 196.429688 362.175781 198.96875 362.175781 202.074219 Z M 362.175781 275.117188 "/></g><g clip-rule="nonzero" clip-path="url(#99de27add9)"><path style=" stroke:none;fill-rule:nonzero;fill:#000000;fill-opacity:1;" d="M 174.722656 272.089844 L 23.789062 272.089844 C 17.691406 272.089844 12.722656 267.125 12.722656 261.007812 L 12.722656 93.15625 C 12.722656 87.050781 17.691406 82.082031 23.789062 82.082031 L 254.679688 82.082031 C 260.777344 82.082031 265.75 87.050781 265.75 93.15625 L 265.75 108.914062 L 277.023438 108.914062 L 277.023438 93.15625 C 277.03125 80.832031 267.023438 70.796875 254.691406 70.796875 L 23.789062 70.796875 C 11.46875 70.796875 1.449219 80.832031 1.449219 93.15625 L 1.449219 260.996094 C 1.449219 273.332031 11.46875 283.367188 23.789062 283.367188 L 101.210938 283.367188 L 101.210938 293.007812 L 81.28125 293.007812 C 78.160156 293.007812 75.644531 295.535156 75.644531 298.652344 C 75.644531 301.765625 78.160156 304.296875 81.28125 304.296875 L 183.527344 304.296875 C 178.113281 298.289062 174.722656 290.421875 174.722656 281.71875 Z M 166.007812 293.019531 L 112.484375 293.019531 L 112.484375 283.378906 L 166.007812 283.378906 Z M 166.007812 293.019531 "/></g></g></svg>