<svg xmlns="http://www.w3.org/2000/svg" xmlns:xlink="http://www.w3.org/1999/xlink" width="500" zoomAndPan="magnify" viewBox="0 0 375 374.999991" height="500" preserveAspectRatio="xMidYMid meet" version="1.2"><defs><clipPath id="711ebeee21"><path d="M 2.1875 105 L 120 105 L 120 236 L 2.1875 236 Z M 2.1875 105 "/></clipPath><clipPath id="be94d17791"><path d="M 242 102.488281 L 372.6875 102.488281 L 372.6875 227 L 242 227 Z M 242 102.488281 "/></clipPath><clipPath id="f8f01b4a38"><path d="M 281.34375 164.832031 L 358.492188 164.832031 L 358.492188 272.417969 L 281.34375 272.417969 Z M 281.34375 164.832031 "/></clipPath></defs><g id="f80dead2e7"><g clip-rule="nonzero" clip-path="url(#711ebeee21)"><path style=" stroke:none;fill-rule:nonzero;fill:#000000;fill-opacity:1;" d="M 49.117188 142.339844 C 49.117188 136.140625 56.203125 132.957031 61.339844 132.957031 C 73.738281 132.957031 84.011719 140.394531 84.011719 153.5 L 116.070312 153.5 L 116.070312 109.042969 L 85.605469 109.042969 L 83.832031 123.921875 C 76.75 110.636719 61.695312 105.855469 46.8125 105.855469 C 29.460938 105.855469 4.660156 117.722656 4.660156 143.9375 C 4.660156 189.101562 72.675781 183.257812 72.675781 197.074219 C 72.675781 204.511719 63.820312 205.929688 57.621094 205.929688 C 50.179688 205.574219 35.304688 203.09375 35.304688 188.214844 L 2.359375 188.214844 L 2.359375 232.855469 L 33.355469 232.855469 L 35.304688 219.210938 C 42.03125 227.183594 54.429688 235.507812 72.320312 235.507812 C 93.398438 235.507812 119.261719 225.589844 119.261719 197.957031 C 119.261719 156.335938 49.117188 160.585938 49.117188 142.339844 "/></g><path style=" stroke:none;fill-rule:nonzero;fill:#000000;fill-opacity:1;" d="M 128.117188 132.421875 L 139.273438 132.421875 L 139.273438 209.296875 L 128.117188 209.296875 L 128.117188 232.855469 L 234.921875 232.855469 L 234.921875 192.816406 L 204.277344 192.816406 L 204.277344 209.296875 L 175.9375 209.296875 L 175.9375 180.421875 L 209.59375 180.421875 L 209.59375 156.867188 L 175.9375 156.867188 L 175.9375 132.421875 L 204.277344 132.421875 L 204.277344 148.1875 L 234.921875 148.1875 L 234.921875 109.042969 L 128.117188 109.042969 L 128.117188 132.421875 "/><path style=" stroke:none;fill-rule:nonzero;fill:#000000;fill-opacity:1;" d="M 325.628906 168.105469 C 325.628906 157.976562 317.414062 149.765625 307.285156 149.765625 C 297.152344 149.765625 288.945312 157.976562 288.945312 168.105469 C 288.945312 173.402344 291.191406 178.171875 294.777344 181.519531 L 294.777344 173.835938 C 294.777344 173.523438 294.792969 173.21875 294.808594 172.90625 C 294.230469 171.414062 293.914062 169.800781 293.914062 168.105469 C 293.914062 160.734375 299.910156 154.738281 307.285156 154.738281 C 314.660156 154.738281 320.65625 160.734375 320.65625 168.105469 C 320.65625 169.800781 320.335938 171.414062 319.761719 172.90625 C 319.78125 173.21875 319.792969 173.523438 319.792969 173.835938 L 319.792969 181.519531 C 323.382812 178.171875 325.628906 173.402344 325.628906 168.105469 "/><path style=" stroke:none;fill-rule:nonzero;fill:#000000;fill-opacity:1;" d="M 326.882812 192.507812 C 328.558594 193.117188 330.070312 194.058594 331.34375 195.261719 C 338.84375 188.613281 343.574219 178.914062 343.574219 168.105469 C 343.574219 148.066406 327.328125 131.820312 307.285156 131.820312 C 287.246094 131.820312 271 148.066406 271 168.105469 C 271 183.753906 280.902344 197.085938 294.777344 202.183594 L 294.777344 196.804688 C 283.71875 191.972656 275.96875 180.929688 275.96875 168.105469 C 275.96875 150.839844 290.019531 136.792969 307.285156 136.792969 C 324.554688 136.792969 338.601562 150.839844 338.601562 168.105469 C 338.601562 177.960938 334.019531 186.765625 326.882812 192.507812 "/><g clip-rule="nonzero" clip-path="url(#be94d17791)"><path style=" stroke:none;fill-rule:nonzero;fill:#000000;fill-opacity:1;" d="M 307.335938 102.492188 C 271.339844 102.492188 242.160156 131.675781 242.160156 167.675781 C 242.160156 193.21875 256.863281 215.324219 278.269531 226.007812 C 278.238281 225.878906 278.207031 225.746094 278.175781 225.621094 C 277.851562 224.257812 277.414062 222.757812 276.949219 221.171875 C 275.578125 216.457031 274.171875 211.628906 274.8125 207.3125 C 263.367188 197.90625 256.0625 183.644531 256.0625 167.675781 C 256.0625 139.355469 279.015625 116.398438 307.335938 116.398438 C 335.65625 116.398438 358.613281 139.355469 358.613281 167.675781 C 358.613281 179.957031 354.289062 191.230469 347.078125 200.066406 C 348.394531 201.195312 349.511719 202.554688 350.367188 204.09375 C 350.601562 204.082031 350.832031 204.078125 351.054688 204.078125 C 354.253906 204.078125 357.128906 205.09375 359.449219 206.828125 C 367.652344 195.925781 372.519531 182.367188 372.519531 167.675781 C 372.519531 131.675781 343.335938 102.492188 307.335938 102.492188 "/></g><g clip-rule="nonzero" clip-path="url(#f8f01b4a38)"><path style=" stroke:none;fill-rule:nonzero;fill:#000000;fill-opacity:1;" d="M 351.054688 211.03125 C 348.492188 211.03125 346.726562 212.210938 345.34375 214.148438 L 345.34375 211.667969 C 345.34375 206.863281 341.792969 203.464844 337.417969 203.464844 C 334.476562 203.464844 331.914062 205.003906 330.542969 207.46875 L 330.542969 205.148438 C 330.542969 200.210938 326.894531 196.703125 322.390625 196.703125 C 318.957031 196.703125 316.03125 198.734375 314.820312 201.882812 L 314.820312 173.835938 C 314.820312 168.894531 311.449219 164.886719 307.285156 164.886719 C 303.121094 164.886719 299.75 168.894531 299.75 173.835938 L 299.75 222.964844 C 298.695312 219.851562 297.726562 217.113281 296.976562 215.167969 C 294.300781 208.226562 289.109375 203.960938 284.851562 204.867188 C 278.492188 206.21875 283.109375 216.316406 284.9375 224.011719 C 286.441406 230.332031 289.746094 242.355469 290.914062 245.261719 C 292.945312 250.339844 295.121094 254.660156 297.300781 257.570312 C 304.074219 267.925781 314.617188 272.417969 326.21875 272.417969 C 340.28125 272.417969 358.1875 264.136719 358.1875 239.28125 L 358.160156 239.28125 C 358.171875 239.089844 358.1875 238.898438 358.1875 238.703125 L 358.1875 218.734375 C 358.1875 214.207031 355.269531 211.03125 351.054688 211.03125 "/></g></g></svg>