<svg xmlns="http://www.w3.org/2000/svg" xmlns:xlink="http://www.w3.org/1999/xlink" width="500" zoomAndPan="magnify" viewBox="0 0 375 374.999991" height="500" preserveAspectRatio="xMidYMid meet" version="1.2"><defs><clipPath id="8c8a37d1b6"><path d="M 2.4375 101 L 215 101 L 215 116 L 2.4375 116 Z M 2.4375 101 "/></clipPath><clipPath id="b59c374415"><path d="M 83 14 L 372 14 L 372 361.542969 L 83 361.542969 Z M 83 14 "/></clipPath></defs><g id="19a38b2b7a"><g clip-rule="nonzero" clip-path="url(#8c8a37d1b6)"><path style=" stroke:none;fill-rule:nonzero;fill:currentColor;fill-opacity:1;" d="M 214.359375 108.777344 C 214.359375 104.824219 211.15625 101.621094 207.203125 101.621094 L 9.613281 101.621094 C 5.660156 101.621094 2.457031 104.824219 2.457031 108.777344 C 2.457031 112.730469 5.660156 115.933594 9.613281 115.933594 L 207.203125 115.933594 C 211.15625 115.933594 214.359375 112.730469 214.359375 108.777344 Z M 214.359375 108.777344 "/></g><path style=" stroke:none;fill-rule:nonzero;fill:currentColor;fill-opacity:1;" d="M 175.699219 159.761719 C 175.699219 155.808594 172.496094 152.605469 168.542969 152.605469 L 53.640625 152.605469 C 49.6875 152.605469 46.484375 155.808594 46.484375 159.761719 C 46.484375 163.71875 49.6875 166.921875 53.640625 166.921875 L 168.542969 166.921875 C 172.496094 166.921875 175.699219 163.71875 175.699219 159.761719 Z M 175.699219 159.761719 "/><g clip-rule="nonzero" clip-path="url(#b59c374415)"><path style=" stroke:none;fill-rule:nonzero;fill:currentColor;fill-opacity:1;" d="M 370.988281 155.800781 C 369.785156 153.355469 367.296875 151.804688 364.570312 151.804688 L 290.9375 151.804688 L 321.6875 23.136719 C 322.472656 19.855469 320.855469 16.472656 317.8125 15.015625 C 314.769531 13.558594 311.121094 14.429688 309.0625 17.101562 L 189.007812 172.65625 C 186.59375 175.785156 187.171875 180.28125 190.300781 182.695312 C 193.433594 185.109375 197.925781 184.53125 200.339844 181.402344 L 300.011719 52.25 L 274.910156 157.300781 C 274.398438 159.429688 274.894531 161.675781 276.253906 163.398438 C 277.609375 165.117188 279.679688 166.121094 281.871094 166.121094 L 350.03125 166.121094 L 229.058594 323.28125 L 255.144531 212.53125 C 255.644531 210.402344 255.144531 208.164062 253.789062 206.449219 C 252.429688 204.734375 250.363281 203.734375 248.175781 203.734375 L 90.164062 203.734375 C 86.210938 203.734375 83.007812 206.9375 83.007812 210.890625 C 83.007812 214.84375 86.210938 218.046875 90.164062 218.046875 L 239.140625 218.046875 L 207.519531 352.3125 C 206.746094 355.59375 208.371094 358.96875 211.414062 360.417969 C 212.398438 360.882812 213.445312 361.109375 214.484375 361.109375 C 216.648438 361.109375 218.765625 360.125 220.15625 358.316406 L 370.242188 163.328125 C 371.902344 161.167969 372.195312 158.25 370.988281 155.800781 Z M 370.988281 155.800781 "/></g></g></svg>