<svg xmlns="http://www.w3.org/2000/svg" xmlns:xlink="http://www.w3.org/1999/xlink" width="500" zoomAndPan="magnify" viewBox="0 0 375 374.999991" height="500" preserveAspectRatio="xMidYMid meet" version="1.2"><defs><clipPath id="600cd0a12e"><path d="M 1.417969 100 L 77 100 L 77 195 L 1.417969 195 Z M 1.417969 100 "/></clipPath><clipPath id="22545b4130"><path d="M 66 33.285156 L 373.417969 33.285156 L 373.417969 341.535156 L 66 341.535156 Z M 66 33.285156 "/></clipPath></defs><g id="72073091e6"><path style=" stroke:none;fill-rule:nonzero;fill:#000000;fill-opacity:1;" d="M 202.375 94.496094 C 181.464844 94.496094 164.621094 111.339844 164.621094 132.242188 C 164.621094 153.148438 181.464844 169.988281 202.375 169.988281 C 223.28125 169.988281 240.125 153.148438 240.125 132.242188 C 240.125 111.339844 222.992188 94.496094 202.375 94.496094 Z M 202.375 158.375 C 187.855469 158.375 176.238281 146.761719 176.238281 132.242188 C 176.238281 117.726562 187.855469 106.113281 202.375 106.113281 C 216.894531 106.113281 228.511719 117.726562 228.511719 132.242188 C 228.511719 146.761719 216.605469 158.375 202.375 158.375 Z M 202.375 158.375 "/><path style=" stroke:none;fill-rule:nonzero;fill:#000000;fill-opacity:1;" d="M 172.753906 216.15625 C 169.558594 216.15625 166.945312 218.769531 166.945312 221.960938 L 166.945312 242.285156 C 166.945312 248.675781 172.464844 254.191406 179.144531 254.191406 L 181.175781 254.191406 L 183.789062 242.578125 L 179.144531 242.578125 C 178.851562 242.578125 178.5625 242.285156 178.5625 242.285156 L 178.5625 221.960938 C 178.5625 218.769531 175.949219 216.15625 172.753906 216.15625 Z M 172.753906 216.15625 "/><path style=" stroke:none;fill-rule:nonzero;fill:#000000;fill-opacity:1;" d="M 231.414062 187.410156 L 254.355469 187.410156 C 249.128906 180.441406 240.996094 175.796875 231.414062 175.796875 L 173.335938 175.796875 C 157.945312 175.796875 143.714844 188.28125 143.714844 201.929688 L 143.714844 260 C 143.714844 266.09375 146.910156 271.613281 151.84375 274.515625 L 121.933594 274.515625 C 125.710938 278.582031 129.484375 282.644531 133.839844 286.128906 L 304.886719 286.128906 C 308.949219 282.644531 313.015625 278.582031 316.792969 274.515625 C 320.277344 270.742188 323.46875 266.675781 326.375 262.320312 L 338.28125 205.992188 C 338.570312 204.25 338.28125 202.507812 337.121094 201.058594 C 335.957031 199.605469 334.214844 199.023438 332.472656 199.023438 L 209.34375 199.023438 C 206.730469 199.023438 204.117188 201.058594 203.535156 203.671875 L 188.726562 274.515625 L 176.820312 274.515625 L 178.5625 265.804688 L 161.429688 265.804688 C 158.234375 265.804688 155.039062 262.902344 155.039062 260 L 155.039062 201.929688 C 155.039062 195.539062 163.460938 187.410156 173.042969 187.410156 Z M 214.28125 210.636719 L 325.792969 210.636719 L 312.144531 274.515625 L 200.632812 274.515625 Z M 214.28125 210.636719 "/><g clip-rule="nonzero" clip-path="url(#600cd0a12e)"><path style=" stroke:none;fill-rule:nonzero;fill:#000000;fill-opacity:1;" d="M 9.261719 100.59375 C 8.96875 100.304688 8.386719 100.304688 8.097656 100.304688 C 5.484375 100.015625 2.871094 101.757812 2 104.371094 C 1.417969 106.402344 2 108.726562 3.453125 110.175781 C 4.613281 111.917969 7.808594 118.597656 8.96875 121.5 C 12.453125 129.921875 13.035156 138.339844 13.617188 147.34375 C 13.617188 149.085938 13.90625 150.535156 13.90625 152.277344 C 13.90625 153.148438 14.195312 153.730469 14.195312 154.601562 C 14.195312 155.472656 14.488281 156.34375 14.488281 157.214844 C 14.777344 172.894531 26.394531 190.3125 47.59375 193.507812 C 49.625 193.796875 51.949219 194.089844 54.273438 194.378906 C 54.5625 190.605469 54.851562 186.828125 55.433594 182.765625 C 53.109375 182.472656 50.785156 182.183594 49.042969 181.894531 C 33.945312 179.570312 25.8125 167.667969 25.8125 156.632812 C 25.8125 155.179688 25.523438 154.019531 25.523438 152.859375 C 25.523438 152.277344 25.230469 151.695312 25.230469 151.117188 C 25.230469 149.375 24.941406 147.921875 24.941406 146.179688 C 24.359375 136.597656 23.488281 126.726562 19.421875 116.855469 C 32.78125 122.371094 49.914062 130.792969 57.757812 138.632812 C 62.984375 143.566406 65.597656 149.953125 66.757812 156.34375 C 69.371094 152.859375 72.566406 149.664062 76.339844 146.472656 C 74.308594 140.664062 71.113281 135.148438 66.179688 130.5 C 51.367188 115.984375 15.066406 102.628906 9.839844 100.59375 C 9.550781 100.59375 9.550781 100.59375 9.261719 100.59375 Z M 9.261719 100.59375 "/></g><path style=" stroke:none;fill-rule:nonzero;fill:#000000;fill-opacity:1;" d="M 40.042969 157.503906 C 38.878906 160.40625 40.042969 163.890625 42.945312 165.054688 C 49.335938 167.957031 53.980469 174.34375 56.59375 179.570312 C 57.757812 174.925781 59.207031 170.28125 61.53125 165.632812 C 58.046875 161.277344 53.691406 156.921875 47.882812 154.308594 C 44.6875 153.148438 41.203125 154.601562 40.042969 157.503906 Z M 40.042969 157.503906 "/><g clip-rule="nonzero" clip-path="url(#22545b4130)"><path style=" stroke:none;fill-rule:nonzero;fill:#000000;fill-opacity:1;" d="M 219.507812 33.523438 C 216.3125 33.523438 213.699219 36.136719 213.699219 39.332031 C 213.699219 42.523438 216.3125 45.136719 219.507812 45.136719 C 297.914062 45.136719 361.804688 109.015625 361.804688 187.410156 C 361.804688 265.804688 297.914062 329.683594 219.507812 329.683594 C 152.425781 329.683594 95.507812 283.808594 80.988281 219.640625 C 84.761719 219.929688 89.121094 219.929688 92.605469 219.929688 C 93.183594 219.929688 93.765625 219.929688 94.347656 219.929688 C 115.835938 219.640625 129.773438 203.671875 132.386719 188.28125 C 132.386719 187.410156 132.679688 186.539062 132.96875 185.667969 C 133.261719 184.796875 133.261719 184.214844 133.550781 183.34375 C 133.839844 181.601562 134.132812 180.152344 134.710938 178.410156 C 136.746094 169.410156 138.488281 160.988281 142.84375 153.4375 C 144.292969 150.824219 148.652344 144.4375 150.101562 142.988281 C 151.554688 141.824219 152.425781 139.792969 152.136719 137.46875 C 151.554688 134.277344 148.652344 132.242188 145.457031 132.535156 C 145.457031 132.535156 145.457031 132.535156 145.167969 132.535156 C 144.875 132.535156 144.875 132.535156 144.585938 132.535156 C 138.488281 133.695312 101.316406 142.117188 84.761719 154.601562 C 58.917969 174.054688 67.628906 212.671875 67.921875 214.414062 C 67.921875 214.992188 68.210938 215.574219 68.5 215.863281 C 82.148438 289.035156 145.167969 341.296875 219.507812 341.296875 C 304.304688 341.296875 373.417969 272.191406 373.417969 187.410156 C 373.417969 102.628906 304.304688 33.523438 219.507812 33.523438 Z M 91.441406 164.183594 C 101.027344 157.214844 119.320312 151.117188 132.386719 147.632812 C 126.871094 156.921875 124.839844 166.796875 122.804688 176.085938 C 122.515625 177.539062 122.226562 179.28125 121.644531 180.730469 C 121.644531 181.3125 121.351562 181.894531 121.0625 182.472656 C 120.773438 183.636719 120.480469 185.085938 120.191406 186.25 C 118.449219 196.992188 108.867188 208.023438 93.476562 208.316406 C 91.734375 208.316406 89.992188 208.316406 87.957031 208.316406 C 89.699219 203.960938 94.925781 192.925781 103.640625 188.863281 C 106.542969 187.699219 107.996094 184.214844 106.542969 181.3125 C 105.382812 178.410156 101.898438 176.957031 98.992188 178.410156 C 86.503906 183.925781 79.828125 197.28125 77.214844 203.671875 C 76.921875 192.636719 78.085938 174.34375 91.441406 164.183594 Z M 91.441406 164.183594 "/></g><path style=" stroke:none;fill-rule:nonzero;fill:#000000;fill-opacity:1;" d="M 263.066406 225.15625 C 253.484375 225.15625 245.644531 232.996094 245.644531 242.578125 C 245.644531 252.160156 253.484375 260 263.066406 260 C 272.652344 260 280.492188 252.160156 280.492188 242.578125 C 280.492188 232.996094 272.652344 225.15625 263.066406 225.15625 Z M 263.066406 248.382812 C 259.875 248.382812 257.257812 245.769531 257.257812 242.578125 C 257.257812 239.382812 259.875 236.769531 263.066406 236.769531 C 266.261719 236.769531 268.875 239.382812 268.875 242.578125 C 268.875 245.769531 266.261719 248.382812 263.066406 248.382812 Z M 263.066406 248.382812 "/></g></svg>